<?xml version="1.0" standalone="no"?>
<!DOCTYPE svg PUBLIC "-//W3C//DTD SVG 20010904//EN"
 "http://www.w3.org/TR/2001/REC-SVG-20010904/DTD/svg10.dtd">
<svg version="1.0" xmlns="http://www.w3.org/2000/svg"
 width="960.000000pt" height="968.000000pt" viewBox="0 0 960.000000 968.000000"
 preserveAspectRatio="xMidYMid meet">
<metadata>
Created by potrace 1.16, written by Peter Selinger 2001-2019
</metadata>
<g transform="translate(0.000000,968.000000) scale(0.100000,-0.100000)"
fill="#0f1d9d" stroke="none">
<path d="M0 4840 l0 -4840 2359 0 2359 0 6 198 c4 108 7 263 9 344 l2 146
-1109 6 c-610 4 -1141 9 -1180 12 -99 8 -147 34 -239 128 -97 101 -99 104
-126 206 -36 139 -61 207 -81 225 -11 10 -20 24 -20 32 0 7 -3 13 -7 13 -16 0
-62 98 -83 175 -32 120 -41 141 -97 252 -28 56 -58 124 -66 151 -9 27 -19 58
-25 68 -20 39 -54 119 -57 134 -4 20 -46 114 -54 120 -10 9 -58 112 -90 195
-43 111 -74 178 -88 193 -7 7 -13 20 -13 28 0 8 -5 14 -11 14 -5 0 -8 4 -5 9
3 5 -1 14 -8 21 -8 6 -18 26 -22 43 -3 17 -10 38 -15 47 -5 8 -22 56 -38 105
-16 50 -38 108 -47 130 -10 22 -19 45 -20 52 -1 6 -13 27 -26 45 -14 18 -40
74 -58 123 -18 50 -37 94 -42 100 -4 5 -8 25 -8 45 0 27 -3 32 -11 20 -8 -12
-10 -12 -8 5 3 38 -1 56 -11 50 -6 -3 -10 3 -10 14 0 12 -93 204 -207 429
-406 796 -376 735 -369 769 5 20 38 64 88 117 71 76 79 88 67 103 -8 9 -9 14
-2 10 6 -4 13 -4 16 0 2 5 2 2 0 -5 -5 -21 19 -9 36 19 15 23 15 23 -2 10 -30
-24 -18 3 12 29 17 13 27 28 24 33 -4 6 2 8 14 5 17 -5 20 -1 17 26 -1 17 0
25 3 19 6 -17 26 -17 21 -1 -6 17 16 38 38 38 10 0 14 -3 10 -8 -4 -4 -12 -7
-18 -7 -6 0 -12 -8 -14 -17 -3 -23 0 -23 30 6 13 14 19 27 13 29 -19 6 4 29
24 24 24 -6 44 24 27 41 -9 9 -8 12 5 12 9 0 20 6 24 14 4 8 19 16 32 18 14 1
26 9 29 16 4 14 -19 12 -31 -3 -5 -6 -7 -4 -5 5 3 8 15 15 29 15 27 2 80 49
76 67 -1 7 4 13 11 14 6 1 17 2 23 3 6 0 8 10 4 24 -4 12 -3 17 2 10 10 -14
84 50 79 69 -1 7 -1 9 2 5 5 -10 92 72 92 86 0 4 -5 5 -10 2 -6 -3 -10 -1 -10
5 0 7 7 9 16 6 21 -8 45 11 37 30 -4 10 0 12 12 8 14 -6 16 -3 11 17 -3 13 -3
18 0 12 8 -18 27 -16 21 1 -4 10 -1 13 7 10 8 -3 17 0 22 7 4 7 3 10 -4 5 -6
-4 -10 1 -9 12 1 13 8 19 22 17 31 -2 48 14 33 33 -11 13 -10 14 9 8 17 -5 25
-2 34 16 11 21 11 22 -5 9 -14 -12 -16 -12 -10 3 4 11 13 15 26 10 17 -5 19
-2 14 18 -3 12 -3 17 0 11 8 -19 27 -16 20 3 -3 8 -2 12 4 9 5 -3 32 16 59 43
39 39 47 52 38 62 -9 10 -9 11 1 6 6 -4 12 -3 12 3 0 6 8 7 17 4 12 -5 15 -2
10 10 -4 12 -2 14 10 10 13 -5 15 -2 10 11 -4 10 -3 15 3 11 6 -4 25 8 43 26
20 21 27 34 19 37 -6 2 -9 8 -6 14 4 6 10 5 15 -3 6 -10 86 64 288 266 155
154 281 284 281 289 0 5 -7 2 -17 -5 -14 -12 -16 -12 -11 1 3 8 15 15 28 15
13 0 25 6 27 13 3 8 -1 10 -14 5 -19 -7 -18 -5 11 17 16 12 18 12 12 1 -6 -9
-5 -12 5 -9 8 3 13 12 13 21 -1 9 4 13 12 10 17 -6 19 13 1 21 -6 3 -3 4 9 1
27 -7 67 35 58 61 -5 15 -4 16 5 4 10 -15 217 188 1733 1707 253 254 471 464
483 467 13 3 65 50 116 104 104 109 122 123 191 147 l48 16 97 -68 c54 -38
116 -80 138 -93 22 -13 92 -63 155 -110 63 -47 132 -95 153 -105 21 -11 41
-24 44 -29 4 -5 0 -6 -8 -2 -8 4 -5 0 5 -8 11 -9 28 -16 38 -16 10 0 18 -4 18
-10 0 -5 -8 -7 -17 -5 -10 3 -6 -1 10 -8 15 -7 25 -16 22 -18 -3 -3 5 -5 18
-5 15 1 22 -4 21 -17 -1 -13 3 -16 16 -12 11 3 22 0 27 -8 4 -7 16 -17 26 -20
10 -4 16 -10 14 -14 -3 -5 27 -30 65 -58 38 -27 125 -92 191 -143 67 -51 167
-123 222 -161 55 -38 163 -115 240 -172 139 -104 268 -190 335 -224 54 -27
282 -180 310 -207 23 -22 123 -105 283 -232 34 -28 67 -57 74 -66 11 -15 44
-42 178 -141 28 -20 96 -65 152 -98 115 -70 239 -163 529 -396 294 -237 331
-263 378 -272 38 -7 82 -30 116 -61 22 -20 80 -60 173 -117 17 -11 40 -38 51
-59 16 -33 17 -43 6 -76 -14 -43 -65 -110 -84 -110 -6 0 -18 -9 -26 -21 -8
-11 -34 -46 -58 -77 -23 -31 -59 -88 -79 -127 -20 -38 -46 -83 -58 -100 -12
-16 -25 -38 -28 -47 -4 -10 -11 -18 -17 -18 -5 0 -10 -5 -10 -11 0 -6 -22 -37
-50 -69 -27 -32 -50 -60 -50 -64 0 -3 -30 -44 -67 -90 -143 -177 -290 -384
-331 -466 -24 -47 -50 -92 -57 -100 -7 -8 -25 -42 -40 -75 -28 -60 -126 -208
-148 -222 -14 -9 -94 -109 -185 -230 -34 -44 -65 -83 -70 -85 -5 -1 -27 -30
-50 -63 -22 -33 -62 -89 -87 -125 -76 -106 -130 -191 -170 -265 -21 -38 -61
-103 -89 -143 -28 -40 -65 -97 -83 -125 -118 -192 -218 -343 -283 -429 -41
-55 -97 -130 -125 -168 -27 -38 -68 -92 -90 -122 -22 -29 -46 -65 -53 -81 -6
-15 -16 -27 -22 -27 -8 0 -7 6 0 20 8 16 8 20 -4 20 -18 0 -23 -15 -21 -62 1
-22 -2 -35 -9 -32 -12 5 -47 -68 -42 -88 1 -7 1 -10 -1 -6 -3 4 -26 -15 -52
-43 -47 -50 -48 -50 -43 -19 2 16 2 30 -1 30 -11 0 -45 -82 -40 -98 2 -10 -3
-30 -11 -46 -9 -18 -12 -41 -9 -59 5 -25 3 -29 -10 -24 -10 4 -29 -4 -48 -20
-25 -22 -34 -24 -48 -15 -31 23 -42 25 -67 12 -19 -11 -27 -11 -36 -2 -17 17
-42 15 -71 -8 -34 -27 -56 -25 -67 4 -6 18 -14 23 -28 19 -24 -6 -38 13 -23
31 11 13 1 25 -51 58 -26 17 -27 17 -25 -2 1 -18 10 -24 29 -21 4 0 12 -9 19
-20 10 -20 8 -20 -33 5 -23 14 -43 31 -43 38 0 12 -5 14 -47 17 -9 0 -30 12
-46 26 -17 14 -40 25 -52 25 -16 0 -21 4 -16 16 6 15 0 16 -43 10 -48 -6 -49
-6 -60 24 -8 24 -7 29 2 23 7 -4 -1 7 -17 24 -17 18 -34 29 -39 26 -6 -3 -7
-1 -3 6 5 8 16 5 39 -11 l32 -23 -28 36 c-22 29 -43 42 -105 62 -86 29 -204
52 -224 44 -7 -3 -2 -6 10 -6 22 -1 119 -25 152 -38 8 -4 35 -13 59 -22 25 -9
46 -22 47 -29 1 -7 0 -8 -2 -3 -3 5 -15 7 -27 4 -18 -4 -19 -3 -7 6 12 8 6 11
-27 11 -23 0 -58 9 -77 20 -24 13 -33 15 -30 6 4 -11 -4 -12 -35 -6 -24 4 -41
3 -41 -2 0 -12 -42 1 -53 16 -5 6 -6 -126 -3 -293 3 -167 6 -426 6 -574 l0
-270 488 8 c268 5 1142 9 1942 10 800 1 1546 2 1658 3 l202 2 0 4120 0 4120
-4800 0 -4800 0 0 -4840z"/>
<path d="M4979 8302 c-32 -21 -89 -86 -89 -101 0 -26 -66 -114 -113 -150 -29
-23 -59 -47 -68 -56 -9 -8 -23 -15 -32 -15 -9 0 -21 -8 -26 -17 -6 -10 -11
-14 -11 -8 0 10 -440 -425 -440 -435 0 -3 -64 -71 -142 -150 -79 -80 -165
-175 -192 -210 -27 -36 -69 -81 -95 -100 -25 -19 -64 -53 -87 -75 -23 -22 -56
-51 -74 -65 -18 -14 -58 -51 -89 -84 -106 -110 -161 -164 -161 -157 0 3 -8 -7
-19 -24 -10 -16 -65 -78 -122 -136 -57 -58 -135 -141 -174 -184 -121 -137
-158 -177 -227 -245 -38 -36 -68 -71 -68 -77 0 -7 -7 -13 -15 -15 -24 -5 -295
-257 -295 -274 0 -4 -29 -36 -65 -72 -36 -36 -65 -69 -65 -73 0 -5 -9 -13 -20
-19 -11 -6 -20 -15 -20 -21 0 -6 -16 -25 -35 -43 -19 -19 -35 -36 -35 -39 0
-10 -50 -57 -60 -57 -6 0 -10 -4 -10 -8 0 -5 -17 -27 -38 -49 -20 -22 -44 -49
-53 -59 -9 -11 -32 -33 -50 -49 -19 -17 -54 -53 -79 -79 -25 -27 -72 -72 -105
-100 -32 -28 -73 -66 -90 -85 -55 -62 -137 -141 -146 -141 -5 0 -9 -4 -9 -10
0 -12 -59 -70 -71 -70 -5 0 -9 -6 -9 -14 0 -8 -9 -18 -20 -21 -11 -3 -20 -13
-20 -21 0 -8 -5 -14 -11 -14 -17 0 -63 -54 -82 -96 -49 -113 -38 -246 32 -379
17 -33 31 -65 31 -71 0 -7 3 -14 8 -16 4 -1 17 -23 28 -48 12 -25 44 -94 73
-153 28 -59 54 -119 57 -132 3 -14 9 -25 13 -25 3 0 12 -15 19 -32 8 -18 24
-56 38 -85 13 -28 24 -58 24 -66 0 -8 7 -20 15 -27 8 -7 15 -19 15 -27 0 -9 8
-32 19 -52 10 -20 23 -47 29 -61 25 -61 57 -131 93 -205 21 -44 39 -88 39 -97
0 -10 4 -18 10 -18 5 0 13 -12 16 -27 4 -15 18 -42 31 -61 12 -19 23 -41 23
-48 0 -7 4 -14 8 -16 10 -4 59 -105 67 -141 4 -15 11 -30 16 -33 11 -6 32 -44
25 -44 -3 0 -14 10 -26 22 -11 12 -20 17 -20 11 0 -6 7 -16 15 -23 8 -7 15
-19 15 -28 0 -8 122 -256 271 -551 368 -727 429 -840 416 -784 -4 19 -2 20 13
10 10 -6 16 -15 13 -20 -3 -5 3 -4 14 2 15 7 23 7 32 -2 14 -14 215 -16 246
-2 11 5 100 10 197 11 97 1 207 7 245 13 37 6 140 15 228 21 88 6 219 15 290
21 124 10 567 5 661 -7 l41 -6 1 719 0 719 -34 38 c-19 21 -34 42 -34 46 0 16
-127 71 -160 69 -19 -1 -60 8 -90 19 -30 12 -73 24 -95 28 -53 8 -125 39 -315
135 -87 43 -160 79 -164 79 -3 0 -95 43 -204 96 -108 53 -215 104 -237 114
-38 17 -71 32 -176 79 -25 12 -49 21 -53 21 -13 0 -160 72 -231 113 -180 104
-190 114 -189 187 0 54 35 143 70 178 8 7 14 17 14 21 0 4 32 41 71 82 38 41
96 108 127 149 31 41 62 80 68 85 13 11 170 196 229 270 22 27 55 63 74 80 73
64 270 269 347 361 83 99 86 104 124 159 18 28 39 57 47 65 7 8 36 40 64 70
27 30 78 91 112 134 82 104 357 425 512 596 61 68 180 234 250 350 21 36 57
90 80 120 22 30 71 103 108 161 37 58 91 129 121 157 46 44 61 52 93 52 21 0
43 -4 50 -8 17 -11 18 -179 5 -697 -6 -234 -10 -994 -9 -1714 l2 -1294 125
-52 c69 -29 177 -83 240 -120 106 -64 234 -115 285 -115 20 0 126 -34 191 -61
28 -11 36 -10 58 5 42 27 204 254 320 446 74 124 207 319 374 548 91 125 133
187 170 250 18 31 53 86 78 122 25 36 66 98 92 138 186 289 315 477 500 728
75 102 212 310 296 448 26 43 67 102 91 131 24 30 46 63 50 75 4 12 19 41 35
63 52 79 50 86 -42 189 -59 66 -109 109 -178 154 -52 34 -167 119 -255 189
-88 69 -189 146 -225 169 -36 24 -94 69 -130 101 -126 111 -361 276 -495 349
-117 64 -333 216 -422 297 -12 11 -26 18 -31 15 -5 -3 -29 7 -53 23 -61 38
-274 200 -334 254 -27 24 -70 56 -95 69 -152 85 -200 120 -304 224 -111 112
-400 332 -458 349 -13 4 -30 13 -38 20 -20 16 -121 65 -134 65 -6 0 -23 -8
-37 -18z"/>
<path d="M4580 5233 c-65 -57 -140 -134 -140 -145 0 -4 -13 -37 -30 -71 -16
-35 -30 -70 -30 -76 0 -7 -28 -43 -63 -81 -34 -37 -86 -103 -116 -146 -74
-109 -128 -171 -253 -296 -59 -59 -129 -140 -155 -180 -59 -91 -67 -108 -48
-108 8 0 15 4 15 10 0 5 9 14 20 20 18 9 20 8 20 -15 0 -17 -10 -31 -35 -47
-40 -27 -54 -50 -57 -97 -3 -33 -3 -34 82 -66 47 -17 120 -48 163 -68 43 -20
101 -41 130 -46 79 -16 198 -57 190 -65 -5 -4 -1 -7 7 -6 31 5 42 0 36 -15 -3
-9 0 -15 8 -15 7 0 23 -12 37 -27 21 -23 22 -25 4 -18 -79 30 -66 9 15 -25 45
-19 286 -98 340 -111 9 -2 14 2 12 10 -11 50 -13 959 -3 1201 12 292 8 362
-29 493 -16 54 -49 51 -120 -10z"/>
<path d="M5315 1350 c-15 -25 6 -49 48 -54 109 -13 1871 -25 1884 -12 3 3 -16
7 -43 8 -60 2 -96 5 -106 8 -5 1 -16 3 -25 4 -10 1 -23 4 -29 8 -9 6 -42 11
-144 23 -146 16 -1576 30 -1585 15z"/>
<path d="M4220 1339 c-58 -4 -125 -7 -149 -8 -24 0 -42 -3 -40 -5 2 -3 150 -8
329 -12 179 -3 333 -11 342 -15 21 -11 31 3 21 28 -7 17 -23 18 -203 18 -107
0 -242 -3 -300 -6z"/>
<path d="M6150 840 c-512 -3 -695 -7 -605 -13 304 -18 1764 -8 1820 13 21 8
-19 8 -1215 0z"/>
<path d="M5300 352 l0 -352 2150 0 2150 0 0 345 0 345 -1488 0 c-819 0 -1786
3 -2150 7 l-662 6 0 -351z"/>
</g>
</svg>
